<?xml version="1.0" encoding="utf-8" ?>
<svg baseProfile="full" height="800" version="1.1" width="1500" xmlns="http://www.w3.org/2000/svg" xmlns:ev="http://www.w3.org/2001/xml-events" xmlns:xlink="http://www.w3.org/1999/xlink"><defs /><rect fill="rgb(0, 187, 145)" height="30" stroke="black" stroke-width="1" width="266.118738716" x="10.0" y="760" /><text x="12.0" y="783">pitasc_root : 266.118738716ms</text><rect fill="rgb(0, 187, 145)" height="30" stroke="black" stroke-width="1" width="266.118738716" x="10.0" y="730" /><text x="12.0" y="753">main : 266.118738716ms</text><rect fill="rgb(0, 187, 145)" height="30" stroke="black" stroke-width="1" width="101.962463786" x="10.0205735399" y="700" /><text x="12.0205735399" y="723">skill_move_ptp : 101.962463786ms</text><rect fill="rgb(0, 187, 145)" height="30" stroke="black" stroke-width="1" width="95.6052399547" x="111.983037326" y="670" /><text x="113.983037326" y="693">skill_move_to : 95.6052399547ms</text><rect fill="rgb(0, 187, 145)" height="30" stroke="black" stroke-width="1" width="21.2318931855" x="207.608850821" y="640" /><text x="209.608850821" y="663">skill_idle_duration : 21.2318931855ms</text><rect fill="rgb(0, 187, 145)" height="30" stroke="black" stroke-width="1" width="47.2368476298" x="228.861317546" y="610" /><text x="230.861317546" y="633">skill_approach : 47.2368476298ms</text><rect fill="rgb(0, 187, 145)" height="30" stroke="black" stroke-width="1" width="16.0885082084" x="228.881891086" y="580" /><text x="230.881891086" y="603">approach : 16.0885082084ms</text><rect fill="rgb(0, 187, 145)" height="30" stroke="black" stroke-width="1" width="31.1071923416" x="244.970399295" y="550" /><text x="246.970399295" y="573">target : 31.1071923416ms</text><rect fill="rgb(0, 187, 145)" height="30" stroke="black" stroke-width="1" width="259.864382584" x="373.328714784" y="760" /><text x="375.328714784" y="783">pitasc_root : 259.864382584ms</text><rect fill="rgb(0, 187, 145)" height="30" stroke="black" stroke-width="1" width="259.823235504" x="373.369861863" y="730" /><text x="375.369861863" y="753">main : 259.823235504ms</text><rect fill="rgb(0, 187, 145)" height="30" stroke="black" stroke-width="1" width="102.435655204" x="373.390435403" y="700" /><text x="375.390435403" y="723">skill_move_ptp : 102.435655204ms</text><rect fill="rgb(0, 187, 145)" height="30" stroke="black" stroke-width="1" width="88.8776924046" x="475.826090608" y="670" /><text x="477.826090608" y="693">skill_move_to : 88.8776924046ms</text><rect fill="rgb(0, 187, 145)" height="30" stroke="black" stroke-width="1" width="21.0673048663" x="564.703783012" y="640" /><text x="566.703783012" y="663">skill_idle_duration : 21.0673048663ms</text><rect fill="rgb(0, 187, 145)" height="30" stroke="black" stroke-width="1" width="47.3808624092" x="585.791661418" y="610" /><text x="587.791661418" y="633">skill_approach : 47.3808624092ms</text><rect fill="rgb(0, 187, 145)" height="30" stroke="black" stroke-width="1" width="16.2530965277" x="585.812234958" y="580" /><text x="587.812234958" y="603">approach : 16.2530965277ms</text><rect fill="rgb(0, 187, 145)" height="30" stroke="black" stroke-width="1" width="31.0866188017" x="602.085905026" y="550" /><text x="604.085905026" y="573">target : 31.0866188017ms</text><rect fill="rgb(0, 187, 145)" height="30" stroke="black" stroke-width="1" width="261.407398077" x="728.633749003" y="760" /><text x="730.633749003" y="783">pitasc_root : 261.407398077ms</text><rect fill="rgb(0, 187, 145)" height="30" stroke="black" stroke-width="1" width="261.386824537" x="728.633749003" y="730" /><text x="730.633749003" y="753">main : 261.386824537ms</text><rect fill="rgb(0, 187, 145)" height="30" stroke="black" stroke-width="1" width="102.867699542" x="728.633749003" y="700" /><text x="730.633749003" y="723">skill_move_ptp : 102.867699542ms</text><rect fill="rgb(0, 187, 145)" height="30" stroke="black" stroke-width="1" width="90.1943989587" x="831.501448545" y="670" /><text x="833.501448545" y="693">skill_move_to : 90.1943989587ms</text><rect fill="rgb(0, 187, 145)" height="30" stroke="black" stroke-width="1" width="21.0467313264" x="921.716421044" y="640" /><text x="923.716421044" y="663">skill_idle_duration : 21.0467313264ms</text><rect fill="rgb(0, 187, 145)" height="30" stroke="black" stroke-width="1" width="47.2574211698" x="942.76315237" y="610" /><text x="944.76315237" y="633">skill_approach : 47.2574211698ms</text><rect fill="rgb(0, 187, 145)" height="30" stroke="black" stroke-width="1" width="16.1090817483" x="942.78372591" y="580" /><text x="944.78372591" y="603">approach : 16.1090817483ms</text><rect fill="rgb(0, 187, 145)" height="30" stroke="black" stroke-width="1" width="31.1071923416" x="958.892807658" y="550" /><text x="960.892807658" y="573">target : 31.1071923416ms</text></svg>