<?xml version="1.0" encoding="utf-8" ?>
<svg baseProfile="full" height="800" version="1.1" width="1500" xmlns="http://www.w3.org/2000/svg" xmlns:ev="http://www.w3.org/2001/xml-events" xmlns:xlink="http://www.w3.org/1999/xlink"><defs /><rect fill="rgb(0, 187, 145)" height="30" stroke="black" stroke-width="1" width="980.046919136" x="10.0" y="760" /><text x="12.0" y="783">0 : 0:01:02.664000</text><rect fill="rgb(0, 187, 145)" height="30" stroke="black" stroke-width="1" width="980.0" x="10.0312794242" y="730" /><text x="12.0312794242" y="753">main : 0:01:02.661000</text><rect fill="rgb(0, 187, 145)" height="30" stroke="black" stroke-width="1" width="70.1753882" x="10.2971545299" y="700" /><text x="12.2971545299" y="723">move_to_start_1 : 0:00:04.487000</text><rect fill="rgb(0, 187, 145)" height="30" stroke="black" stroke-width="1" width="891.182074975" x="80.5038221541" y="670" /><text x="82.5038221541" y="693">mount_h_vac_with_deviation_y : 0:00:56.982000</text><rect fill="rgb(0, 187, 145)" height="30" stroke="black" stroke-width="1" width="507.60249597" x="80.5976604267" y="640" /><text x="82.5976604267" y="663">learning_phase : 0:00:32.456000</text><rect fill="rgb(0, 187, 145)" height="30" stroke="black" stroke-width="1" width="170.26954565" x="80.6758589872" y="610" /><text x="82.6758589872" y="633">approach : 0:00:10.887000</text><rect fill="rgb(0, 187, 145)" height="30" stroke="black" stroke-width="1" width="13.2155567259" x="250.976684062" y="580" /><text x="252.976684062" y="603">contact_z : 0:00:00.845000</text><rect fill="rgb(0, 187, 145)" height="30" stroke="black" stroke-width="1" width="8.14829000495" x="264.301718772" y="550" /><text x="266.301718772" y="573">contact_y : 0:00:00.521000</text><rect fill="rgb(0, 187, 145)" height="30" stroke="black" stroke-width="1" width="37.3007133624" x="272.512567626" y="520" /><text x="274.512567626" y="543">contact_-y : 0:00:02.385000</text><rect fill="rgb(0, 187, 145)" height="30" stroke="black" stroke-width="1" width="32.7182777166" x="309.860200124" y="490" /><text x="311.860200124" y="513">no_contact_y : 0:00:02.092000</text><rect fill="rgb(0, 187, 145)" height="30" stroke="black" stroke-width="1" width="115.827707825" x="342.859992659" y="460" /><text x="344.859992659" y="483">rot_insertion : 0:00:07.406000</text><rect fill="rgb(0, 187, 145)" height="30" stroke="black" stroke-width="1" width="75.1800960725" x="458.765899044" y="430" /><text x="460.765899044" y="453">push_hard_z : 0:00:04.807000</text><rect fill="rgb(0, 187, 145)" height="30" stroke="black" stroke-width="1" width="54.0977641595" x="534.039833389" y="400" /><text x="536.039833389" y="423">close_lid : 0:00:03.459000</text><rect fill="rgb(0, 187, 145)" height="30" stroke="black" stroke-width="1" width="47.0755334259" x="588.278354958" y="370" /><text x="590.278354958" y="393">mount_h_vac_done : 0:00:03.010000</text><rect fill="rgb(0, 187, 145)" height="30" stroke="black" stroke-width="1" width="288.74036482" x="635.494645792" y="340" /><text x="637.494645792" y="363">production_phase : 0:00:18.462000</text><rect fill="rgb(0, 187, 145)" height="30" stroke="black" stroke-width="1" width="70.8009766841" x="635.69796205" y="310" /><text x="637.69796205" y="333">extraction : 0:00:04.527000</text><rect fill="rgb(0, 187, 145)" height="30" stroke="black" stroke-width="1" width="24.1320757728" x="706.530218158" y="280" /><text x="708.530218158" y="303">playback_start_position : 0:00:01.543000</text><rect fill="rgb(0, 187, 145)" height="30" stroke="black" stroke-width="1" width="82.0928488214" x="730.709213067" y="250" /><text x="732.709213067" y="273">playback_approach : 0:00:05.249000</text><rect fill="rgb(0, 187, 145)" height="30" stroke="black" stroke-width="1" width="41.5703547661" x="812.833341313" y="220" /><text x="814.833341313" y="243">playback_start_closing_lid : 0:00:02.658000</text><rect fill="rgb(0, 187, 145)" height="30" stroke="black" stroke-width="1" width="47.4665262284" x="854.450615215" y="190" /><text x="856.450615215" y="213">playback_semi_closing_lid : 0:00:03.035000</text><rect fill="rgb(0, 187, 145)" height="30" stroke="black" stroke-width="1" width="22.2553103206" x="901.96406058" y="160" /><text x="903.96406058" y="183">playback_fully_closing_lid : 0:00:01.423000</text><rect fill="rgb(0, 187, 145)" height="30" stroke="black" stroke-width="1" width="47.3570482437" x="924.313209173" y="130" /><text x="926.313209173" y="153">playback_mount_h_vac_done : 0:00:03.028000</text><rect fill="rgb(0, 187, 145)" height="30" stroke="black" stroke-width="1" width="18.2202645984" x="971.779735402" y="100" /><text x="973.779735402" y="123">extraction_after_with_deviation : 0:00:01.165000</text></svg>